<?xml version="1.0" encoding="utf-8"?>
<!-- Svg Vector Icons : http://www.onlinewebfonts.com/icon -->
<!DOCTYPE svg PUBLIC "-//W3C//DTD SVG 1.1//EN" "http://www.w3.org/Graphics/SVG/1.1/DTD/svg11.dtd">
<svg version="1.1" xmlns="http://www.w3.org/2000/svg" xmlns:xlink="http://www.w3.org/1999/xlink" x="0px" y="0px" viewBox="0 0 1000 1000" enable-background="new 0 0 1000 1000" xml:space="preserve">
<metadata> Svg Vector Icons : http://www.onlinewebfonts.com/icon </metadata>
<g><g transform="translate(0.000000,512.000000) scale(0.100000,-0.100000)"><path d="M1852.2,4996.6c-113-42.1-206.8-128.3-266.1-243.2c-47.9-90-53.6-120.6-47.9-237.4l5.7-134l754.4-1415c494-926.7,775.5-1434.1,817.6-1472.4c32.5-32.6,601.2-350.4,1261.8-704.6l1202.5-647.2l568.7-963.1c312.1-530.4,597.4-991.8,631.9-1028.2c137.9-139.8,360-178.1,545.7-90c224,103.4,338.9,382.9,248.9,601.2c-17.2,38.3-381,664.4-809.9,1390.1c-561,947.8-796.5,1332.7-842.5,1367.1c-40.2,30.6-450,185.7-1089.5,413.6l-1024.4,365.7l-698.9,1311.6c-382.9,721.9-716.1,1332.7-739.1,1355.6C2248.6,4998.5,2015,5056,1852.2,4996.6z"/><path d="M7188.6,1619c-201.1-70.9-354.2-214.5-453.8-423.2c-53.6-114.9-59.4-143.6-59.4-310.2c0-172.3,3.8-189.6,72.8-327.4c82.3-170.4,214.5-300.6,377.2-377.2c93.8-44.1,128.3-49.8,315.9-49.8c191.5,0,220.2,3.8,319.8,53.6c233.6,114.9,392.5,321.7,438.5,574.4c61.3,335.1-118.7,675.9-438.5,829.1C7615.6,1659.2,7341.8,1672.6,7188.6,1619z"/><path d="M2549.2-2319.6c-197.2-44-375.3-143.6-595.5-335.1c-243.2-208.7-344.7-264.2-538-285.3c-227.9-24.9-321.7-114.9-321.7-304.4c0-113,53.6-203,153.2-256.6c55.5-30.6,93.8-36.4,229.8-28.7c302.5,19.2,534.2,130.2,842.5,405.9c214.5,191.5,296.8,227.9,507.4,227.9c220.2,0,283.4-28.7,547.6-258.5c315.9-270,576.3-381,901.8-381c306.4,1.9,568.7,99.6,809.9,306.4c354.2,304.4,467.2,360,695,338.9c166.6-17.2,252.7-63.2,474.9-252.7c356.2-304.5,545.7-382.9,917.2-382.9c371.5,0,570.6,82.3,899.9,373.4c212.5,189.6,319.8,245.1,513.1,266.2c82.3,9.6,170.4,30.6,197.2,47.9c124.5,82.3,164.7,289.1,78.5,413.6c-90,132.1-227.9,160.8-501.7,105.3c-247-51.7-373.4-122.5-652.9-363.8c-247-212.5-321.7-247-534.2-248.9c-220.2,0-279.6,28.7-547.6,258.5c-337,292.9-610.8,396.3-976.5,377.2c-321.7-19.2-540-122.5-859.7-405.9c-216.4-191.5-296.8-227.9-507.4-229.8c-151.3,0-185.7,5.7-277.6,53.6c-57.4,28.7-181.9,118.7-273.8,201c-306.4,273.8-513.2,365.7-855.9,379.1C2740.7-2294.7,2631.5-2300.4,2549.2-2319.6z"/><path d="M2553-3564.1c-231.7-51.7-386.8-141.7-645.3-371.5c-193.4-172.3-304.4-227.9-494-248.9c-82.3-9.6-170.4-30.6-197.2-47.9c-178.1-118.7-162.8-407.8,30.6-513.2c141.7-78.5,540-7.6,764,136c51.7,32.5,174.2,130.2,271.9,214.4c258.5,222.1,329.3,254.7,543.8,256.6c220.2,0,283.4-30.6,547.6-260.4c310.2-268.1,578.2-381,907.6-381c296.8,0,566.8,103.4,804.2,306.4c350.4,300.6,467.2,358.1,689.3,340.8c166.6-13.4,260.4-63.2,478.7-250.8c224-193.4,373.4-287.2,545.7-340.8c172.3-55.5,450-67,630-28.7c248.9,51.7,369.5,124.5,731.4,430.8c153.2,130.2,247,172.3,428.9,191.5c78.5,9.6,166.6,30.6,193.4,47.9c124.5,82.3,164.7,289.1,78.5,413.6c-74.7,111.1-151.3,137.9-342.7,126.4c-300.6-19.2-530.4-130.2-829.1-396.3c-224-199.1-304.5-235.5-517-237.4c-220.2,0-279.6,28.7-547.6,258.5c-312.1,270-578.3,382.9-907.6,382.9c-325.5,0-566.8-101.5-871.2-365.7c-266.1-229.8-361.9-275.7-574.4-275.7c-210.6,0-277.6,32.6-526.6,245.1c-338.9,291-526.6,375.3-871.2,388.7C2742.6-3539.3,2631.5-3545,2553-3564.1z"/></g></g>
</svg>